<svg xmlns="http://www.w3.org/2000/svg" xmlns:xlink="http://www.w3.org/1999/xlink" width="274.8" height="198.026" viewBox="0 0 274.8 198.026">
  <defs>
    <linearGradient id="linear-gradient" x1="0.5" y1="1" x2="0.5" gradientUnits="objectBoundingBox">
      <stop offset="0" stop-color="gray" stop-opacity="0.251"/>
      <stop offset="0.54" stop-color="gray" stop-opacity="0.122"/>
      <stop offset="1" stop-color="gray" stop-opacity="0.102"/>
    </linearGradient>
    <linearGradient id="linear-gradient-2" x1="0.5" y1="1" x2="0.5" y2="0" xlink:href="#linear-gradient"/>
  </defs>
  <g id="doctor_illustration" transform="translate(0.002 -0.015)">
    <path id="Tracé_278" data-name="Tracé 278" d="M216.6,107.16c-17.617-.612-34.409-6.3-50.42-12.521S134.3,81.522,117.1,78.226C106.038,76.1,93.388,75.8,84.477,81.735,75.9,87.44,73.129,97.29,71.639,106.429c-1.121,6.877-1.771,14.113,1.293,20.552,2.133,4.468,5.918,8.225,8.537,12.506,9.108,14.895,2.669,33.263-7.2,47.819-4.63,6.831-10,13.331-13.574,20.595s-5.227,15.585-2.1,22.993c3.1,7.337,10.482,12.858,18.482,16.737,16.248,7.871,35.393,10.123,54.063,11.413,41.327,2.826,82.876,1.6,124.311.377,15.335-.455,30.738-.913,45.822-3.289,8.377-1.318,17.028-3.408,23.11-8.453,7.719-6.406,9.635-17.25,4.461-25.283-8.678-13.47-32.671-16.818-38.738-31.274-3.337-7.957.091-16.823,4.944-24.2C305.452,151.087,322.9,137.2,323.818,119.1c.633-12.43-7.755-24.876-20.724-30.758-13.592-6.171-32.441-5.392-42.468,4.807C250.3,103.656,232.156,107.7,216.6,107.16Z" transform="translate(-56.94 -72.226)" fill="#00b36d"/>
    <path id="Tracé_279" data-name="Tracé 279" d="M207.034,655.681s-13.916-10.52-16.544-23.9a26.449,26.449,0,0,0-8.149-14.6,44.542,44.542,0,0,0-6.52-4.858" transform="translate(-145.743 -472.228)" fill="none" stroke="#535461" stroke-miterlimit="10" stroke-width="2"/>
    <path id="Tracé_280" data-name="Tracé 280" d="M149.3,574.561c1.219,1.65,1.771,8.64,1.771,8.64s-6.52-2.568-7.742-4.215a3.716,3.716,0,1,1,5.971-4.425Z" transform="translate(-120.929 -442.899)" fill="#00b36d"/>
    <path id="Tracé_281" data-name="Tracé 281" d="M193.394,590.4c.127,2.047-3.206,8.215-3.206,8.215s-4.081-5.7-4.21-7.75a3.714,3.714,0,1,1,7.413-.465Z" transform="translate(-153.325 -453.254)" fill="#00b36d"/>
    <path id="Tracé_282" data-name="Tracé 282" d="M239.055,647.1c-.921,1.832-6.915,5.475-6.915,5.475s-.64-6.983.281-8.815a3.714,3.714,0,1,1,6.634,3.34Z" transform="translate(-187.652 -494.187)" fill="#00b36d"/>
    <path id="Tracé_283" data-name="Tracé 283" d="M262.066,703.582c-.6,1.961-5.89,6.563-5.89,6.563s-1.814-6.773-1.214-8.736a3.715,3.715,0,0,1,7.1,2.173Z" transform="translate(-204.77 -536.812)" fill="#00b36d"/>
    <path id="Tracé_284" data-name="Tracé 284" d="M169.293,630.914c2.024.273,8.423-2.616,8.423-2.616s-5.4-4.473-7.433-4.747a3.714,3.714,0,1,0-.989,7.363Z" transform="translate(-138.462 -480.592)" fill="#00b36d"/>
    <path id="Tracé_285" data-name="Tracé 285" d="M194.03,694.758c2.024-.347,7.254-5.015,7.254-5.015s-6.492-2.651-8.514-2.3a3.714,3.714,0,1,0,1.265,7.32Z" transform="translate(-156.102 -528.317)" fill="#00b36d"/>
    <path id="Tracé_286" data-name="Tracé 286" d="M231.627,752.719c2.052,0,8-3.717,8-3.717s-5.948-3.712-8-3.712a3.714,3.714,0,0,0,0,7.428Z" transform="translate(-184.654 -571.555)" fill="#00b36d"/>
    <path id="Tracé_287" data-name="Tracé 287" d="M833.49,315.7s8.577-15.193,21.506-19.57a26.448,26.448,0,0,0,13.39-10.017A44.354,44.354,0,0,0,872.33,279" transform="translate(-637.017 -223.241)" fill="none" stroke="#535461" stroke-miterlimit="10" stroke-width="2"/>
    <path id="Tracé_288" data-name="Tracé 288" d="M994.5,249.165c-1.473,1.427-8.327,2.9-8.327,2.9s1.682-6.806,3.155-8.235a3.714,3.714,0,1,1,5.172,5.331Z" transform="translate(-751.067 -196.189)" fill="#00b36d"/>
    <path id="Tracé_289" data-name="Tracé 289" d="M978.46,294.864c-2.024.4-8.569-2.085-8.569-2.085s5.111-4.807,7.122-5.2a3.714,3.714,0,1,1,1.447,7.284Z" transform="translate(-738.906 -229.584)" fill="#00b36d"/>
    <path id="Tracé_290" data-name="Tracé 290" d="M929.273,348.1c-1.938-.67-6.343-6.125-6.343-6.125s6.831-1.563,8.774-.893a3.714,3.714,0,0,1-2.432,7.019Z" transform="translate(-703.827 -269.487)" fill="#00b36d"/>
    <path id="Tracé_291" data-name="Tracé 291" d="M875.277,377.915c-2.024-.334-7.277-4.977-7.277-4.977s6.475-2.7,8.5-2.363a3.718,3.718,0,0,1-1.207,7.337Z" transform="translate(-662.795 -291.626)" fill="#00b36d"/>
    <path id="Tracé_292" data-name="Tracé 292" d="M947.3,276.137c0,2.052,3.719,8.005,3.719,8.005s3.717-5.946,3.717-7.995a3.714,3.714,0,1,0-7.426,0Z" transform="translate(-722.031 -218.263)" fill="#00b36d"/>
    <path id="Tracé_293" data-name="Tracé 293" d="M887.492,309.75c.612,1.958,5.935,6.525,5.935,6.525s1.771-6.786,1.154-8.744a3.714,3.714,0,0,0-7.084,2.219Z" transform="translate(-677.259 -242.701)" fill="#00b36d"/>
    <path id="Tracé_294" data-name="Tracé 294" d="M834.864,354.1c.273,2.024,4.747,7.431,4.747,7.431s2.887-6.388,2.614-8.42a3.714,3.714,0,1,0-7.36.989Z" transform="translate(-638.009 -276.133)" fill="#00b36d"/>
    <path id="Tracé_295" data-name="Tracé 295" d="M994.5,249.165c-1.473,1.427-8.327,2.9-8.327,2.9s1.682-6.806,3.155-8.235a3.714,3.714,0,1,1,5.172,5.331Z" transform="translate(-751.067 -196.189)" opacity="0.25"/>
    <path id="Tracé_296" data-name="Tracé 296" d="M978.46,294.864c-2.024.4-8.569-2.085-8.569-2.085s5.111-4.807,7.122-5.2a3.714,3.714,0,1,1,1.447,7.284Z" transform="translate(-738.906 -229.584)" opacity="0.25"/>
    <path id="Tracé_297" data-name="Tracé 297" d="M929.273,348.1c-1.938-.67-6.343-6.125-6.343-6.125s6.831-1.563,8.774-.893a3.714,3.714,0,0,1-2.432,7.019Z" transform="translate(-703.827 -269.487)" opacity="0.25"/>
    <path id="Tracé_298" data-name="Tracé 298" d="M875.277,377.915c-2.024-.334-7.277-4.977-7.277-4.977s6.475-2.7,8.5-2.363a3.718,3.718,0,0,1-1.207,7.337Z" transform="translate(-662.795 -291.626)" opacity="0.25"/>
    <path id="Tracé_299" data-name="Tracé 299" d="M947.3,276.137c0,2.052,3.719,8.005,3.719,8.005s3.717-5.946,3.717-7.995a3.714,3.714,0,1,0-7.426,0Z" transform="translate(-722.031 -218.263)" opacity="0.25"/>
    <path id="Tracé_300" data-name="Tracé 300" d="M887.492,309.75c.612,1.958,5.935,6.525,5.935,6.525s1.771-6.786,1.154-8.744a3.714,3.714,0,0,0-7.084,2.219Z" transform="translate(-677.259 -242.701)" opacity="0.25"/>
    <path id="Tracé_301" data-name="Tracé 301" d="M834.864,354.1c.273,2.024,4.747,7.431,4.747,7.431s2.887-6.388,2.614-8.42a3.714,3.714,0,1,0-7.36.989Z" transform="translate(-638.009 -276.133)" opacity="0.25"/>
    <path id="Tracé_302" data-name="Tracé 302" d="M835.44,277.381s1.685-17.367,11.719-26.6a26.456,26.456,0,0,0,8.182-14.583,44.349,44.349,0,0,0,.731-8.1" transform="translate(-638.473 -185.219)" fill="none" stroke="#535461" stroke-miterlimit="10" stroke-width="2"/>
    <path id="Tracé_303" data-name="Tracé 303" d="M920.762,189.882c-.759,1.9-6.437,6.032-6.437,6.032s-1.22-6.9-.453-8.807a3.715,3.715,0,1,1,6.889,2.783Z" transform="translate(-696.873 -152.861)" fill="#00b36d"/>
    <path id="Tracé_304" data-name="Tracé 304" d="M921.938,235.538c-1.677,1.179-8.678,1.566-8.678,1.566s2.727-6.462,4.4-7.641a3.714,3.714,0,1,1,4.273,6.072Z" transform="translate(-696.604 -185.684)" fill="#00b36d"/>
    <path id="Tracé_305" data-name="Tracé 305" d="M893.444,304.529c-2.044.172-8.283-3.036-8.283-3.036s5.617-4.2,7.661-4.372a3.715,3.715,0,1,1,.622,7.4Z" transform="translate(-675.614 -236.767)" fill="#00b36d"/>
    <path id="Tracé_306" data-name="Tracé 306" d="M857.776,353.347c-1.986.506-8.676-1.586-8.676-1.586s4.825-5.088,6.811-5.6a3.714,3.714,0,0,1,1.865,7.191Z" transform="translate(-648.677 -273.317)" fill="#00b36d"/>
    <path id="Tracé_307" data-name="Tracé 307" d="M883.252,236.636c.83,1.875,6.634,5.819,6.634,5.819s.987-6.943.157-8.817a3.714,3.714,0,0,0-6.791,3.006Z" transform="translate(-673.976 -187.764)" fill="#00b36d"/>
    <path id="Tracé_308" data-name="Tracé 308" d="M841.724,290.8c1.353,1.541,8.068,3.56,8.068,3.56s-1.133-6.92-2.487-8.461a3.714,3.714,0,1,0-5.582,4.9Z" transform="translate(-642.477 -227.45)" fill="#00b36d"/>
    <path id="Tracé_309" data-name="Tracé 309" d="M812.139,353.492c1.073,1.746,7.35,4.87,7.35,4.87s.053-7.011-1.012-8.759a3.714,3.714,0,0,0-6.325,3.889Z" transform="translate(-620.708 -274.729)" fill="#00b36d"/>
    <path id="Tracé_310" data-name="Tracé 310" d="M784.44,140.34c.42-1.541.926-3.089,1.28-4.65C785.3,137.251,784.786,138.8,784.44,140.34Z" transform="translate(-600.377 -116.19)" fill="url(#linear-gradient)"/>
    <path id="Tracé_311" data-name="Tracé 311" d="M383.142,97.652c-.035-.061-.061-.121-.089-.177h0c0-.025-.025-.046-.035-.071a1.6,1.6,0,0,1-.17.068c-.111.043-.225.083-.342.116s-.164.051-.253.071a1.48,1.48,0,0,1-.225.058l.02.046c.094-.02.185-.038.278-.063l.025.314c.106,0,.2-.015.3-.015a1.246,1.246,0,0,1,.137,0h.506C383.243,97.885,383.187,97.766,383.142,97.652ZM434.5,179.407c-1.189-1.6-3.562-18.791-3.562-18.791s-4.668-12.223-3.4-17.1-3.476-17.359-3.476-17.359-3.137-1.364-3.307-3.388c0,0-12.81-4.048-13.409-7.084-.486-2.49-8.43-4.276-11.284-4.84-.87-3.512-1.746-6.788-2.391-8.577-.174-.557-.339-1.037-.491-1.417-1.091-2.783-4.461-3.036-6.9-2.813a3.764,3.764,0,0,0-.579-1.323.726.726,0,0,0-.23-.352,1.345,1.345,0,0,0-.167-.121.8.8,0,0,0-.172-.218,1.215,1.215,0,0,0-.228-.162,1.532,1.532,0,0,0-.182-.084,2.437,2.437,0,0,0-.453-.124,3.728,3.728,0,0,0-.547-.071,3.326,3.326,0,0,0,1.166-.853,2.434,2.434,0,0,0,.478-.88,2.59,2.59,0,0,0,.106-.83,2.151,2.151,0,0,1-.228.326,9.351,9.351,0,0,0-.825-3.375,9.986,9.986,0,0,1-.223-4.466h0c.339-2.242,1.179-4.509,1.748-6.791a.161.161,0,0,0,0-.038,17.633,17.633,0,0,0,.552-3.464,15.286,15.286,0,0,0-1.478-6.867c-.863-1.905-2.135-3.78-4.084-4.554a14.644,14.644,0,0,0-4.628-.587c-3.5-.218-6.831-1.447-10.156-2.566S359.409,58.5,355.91,58.7s-7.1,1.882-8.7,4.979a31.2,31.2,0,0,1-1.4,2.95c-1.134,1.713-3.163,2.571-4.855,3.752a9.6,9.6,0,0,0-3.8,4.86,6.483,6.483,0,0,0-.137,3.327h0a5.976,5.976,0,0,0,.213.734,5.2,5.2,0,0,0,1.1,1.8,5.368,5.368,0,0,0,1.25.969h0a7.354,7.354,0,0,0,1.847.719c-.023.076-.046.157-.071.235-.041.129-.076.253-.114.392-.083.311-.162.627-.228.946a.3.3,0,0,0,0,.068,20.662,20.662,0,0,0-.466,4.38,20.181,20.181,0,0,0,.106,2.085h0a21.089,21.089,0,0,0,19.96,18.892c.359.018.721.028,1.088.028h.506c.164.218.326.44.481.658s.3.44.43.658l-.367-.38h0l-.367-.336a2.99,2.99,0,0,1-.331.382,6.152,6.152,0,0,0-.731-.207h0a9.376,9.376,0,0,0-4.754.316,20.791,20.791,0,0,0-7.069,4.035l-13.488,8.1-7.3,4.438L326.1,133.9s-1.976,7.636-4.175,16.385c-.086.025-.169.051-.253.081a4.731,4.731,0,0,0-.536-.03,4.931,4.931,0,0,0-4.939,4.734c-4.372,5.313-4.62,10.626-3.593,13.065h0a3.484,3.484,0,0,0,.349.65,61.432,61.432,0,0,1,3.206,6.146c-.033.22-.053.4-.063.544a1.291,1.291,0,0,0,0,.137s.759,11.464-1.771,14.75a2.547,2.547,0,0,0,0,2.7h0c1.7,3.75,8.4,8.757,8.4,8.757s8.038-.043,12.516-.531c-.013.45-.023.9-.033,1.336-.1,4.423-.1,8.129-.1,8.129l-.167,4.638s-1.518,9.774-2.277,12.468c-.478,1.69.073,17.339.554,28.843h79.2c.931-6.806-.382-27.484-.382-27.484a54.334,54.334,0,0,1-1.293-10.007.038.038,0,0,1,0-.033c0-.407,0-.8.015-1.194l.574-.02,1.032-.035h.094s.025-.1.084-.253h0a4.837,4.837,0,0,1,.554-1.106,2.743,2.743,0,0,1,2.163-1.331,5.859,5.859,0,0,0,2.457-1.169.046.046,0,0,0,.02,0c2.69-1.819,6.244-5.177,7.107-5.728,1.187-.759,6.869-5.819,6.869-5.819s.848-1.073,1.751-2.366l.033-.046c1.123-1.619,2.318-3.555,2.024-4.165-.506-1.093.339-3.707.339-3.707C438.487,187.41,435.692,181.009,434.5,179.407Zm-48.924-77.821a1.015,1.015,0,0,1,.046.233c-.063-.084-.126-.172-.19-.253l-.061-.081-.043-.061.1-.132v.018h0A.878.878,0,0,1,385.578,101.586Zm-.85-2.242c-.276.056-.493.106-.635.144-.18-.319-.352-.638-.506-.961A7.337,7.337,0,0,1,384.728,99.345Zm-.476.4a.055.055,0,0,1,0-.015l.02.015h0c.1.068.2.134.3.2h0c.084.061.159.119.235.18a2.421,2.421,0,0,1-.162.253c-.089-.139-.172-.273-.253-.412A.915.915,0,0,1,384.252,99.745Zm-1.518-3.122a7.485,7.485,0,0,1,1.47,0h0a1.116,1.116,0,0,1,.19.023h0a2.1,2.1,0,0,1,.4.1,2.938,2.938,0,0,1,.534,1.419l-.137.02-.134.025c-.253.043-.506.086-.7.127l-.253.053c-.336.073-.531.129-.539.132-.033-.068-.066-.132-.1-.2-.056-.109-.114-.22-.164-.329s-.116-.233-.17-.347c-.035-.061-.061-.121-.088-.177h0c0-.025-.025-.046-.035-.071a.6.6,0,0,1-.038-.084c-.154-.314-.3-.627-.433-.936-.015-.03-.028-.063-.04-.094l.192-.013v.066ZM322.369,253.574a62.758,62.758,0,0,0-1.053-11.669c-.324-1.627-.658-3.254-1-4.853-.086-.4-.169-.794-.253-1.189l-.779.1h-.071c-2.125-10.022-4.347-18.852-4.347-18.852s-4.412-16.848-3.9-18.191a3.253,3.253,0,0,0-.2-1.336c-1.068-3.831-5.526-14.386-7.084-17.994h0a.143.143,0,0,0-.018-.046h0c-.253-.6-.435-1.012-.491-1.131l.367-5.384.02-.324.048-.688-.02-.018.02-.319a36.913,36.913,0,0,0-10.373-5.437c-.253-.091-.521-.18-.787-.266.326-2.178.759-4.638,1.323-7.034.053-.24.111-.473.172-.708h0c.053-.235.114-.463.175-.693.1-.374.2-.744.306-1.108.352-.111.7-.235,1.04-.367l.132-.051a18.672,18.672,0,0,0,11.385-21.759h0a18.567,18.567,0,0,0-3.259-6.869c-.116-.157-.24-.314-.364-.468s-.273-.326-.412-.483c.731-1.662,1.594-3.244,1.665-4.86a4.967,4.967,0,0,0,0-.615h0v-.025a5.2,5.2,0,0,0-1.627-3.2,10.875,10.875,0,0,0-6.024-2.839c-2.229-.395-4.5-.4-6.743-.67-3.717-.445-7.337-1.591-11.054-1.943a26.265,26.265,0,0,0-13.367,2.277c-2.765,1.265-5.566,3.476-5.733,6.51-.137,2.507,1.609,4.911,1.169,7.388-.438,2.434-2.917,4.349-2.7,6.811a4.888,4.888,0,0,0,1.194,2.588h0c.213.253.438.506.671.759a10.947,10.947,0,0,1,2.4,3.072c.02.051.04.1.058.152a2.854,2.854,0,0,1-.822,3.368.038.038,0,0,1,.013.018h0c.015.02.03.035.043.056a.018.018,0,0,0,0-.013,2.768,2.768,0,0,0,1.445.9l.215.066c-.175.19-.339.387-.506.595l-.109.144a10.536,10.536,0,0,0-.759,1.176c-.129.228-.253.455-.357.683a8.578,8.578,0,0,0-.746,2.194c-.271,1.675.111,3.421-.3,5.06-.506,2.024-2.108,3.578-3.011,5.457-1.71,3.542-.741,7.7-.4,11.611.468,5.313-.291,10.649-1.047,15.927q-.6,4.21-1.2,8.428l-3.036,21.172c-.369,2.586-.807,5.313-2.53,7.309h.018a.022.022,0,0,1-.018.02,5.287,5.287,0,0,0,1.629.42h0c2.249.225,4.633-.863,6.657-2.052a31.457,31.457,0,0,0,4.536-3.185q-.311,1.139-.668,2.477a.152.152,0,0,1,0,.025h0c-2.857,10.879-7.451,30.824-7.451,30.824s-.417.868-.959,2.161h71.349c-.835-1.012-1.612-1.981-2.219-2.763Zm-52.828-100.6c.018-.03.03-.058.048-.086v.549h0a1.874,1.874,0,0,1-.041.311v.023l.253.094.294.121h0q2.6,1.027,5.268,1.86c.182.058.367.114.552.167l.038.314c.045.321.088.648.129.974v.025c.114.9.225,1.8.324,2.684,0,0-4.645-1.771-4.587.918a1.307,1.307,0,0,0,0,.144,1.19,1.19,0,0,0,0,.192,13.41,13.41,0,0,0,.83,3.975.178.178,0,0,1-.04.071,1.384,1.384,0,0,0-.111.782,7.669,7.669,0,0,0,.106,1.351c-.137.083-.271.167-.4.253h0c-.1.063-.2.134-.3.2a37.557,37.557,0,0,0-2.426-6.254,10.61,10.61,0,0,1-1.47-4.5,2.543,2.543,0,0,1,.013-.309,5.306,5.306,0,0,1,.258-1.338c.058-.164.121-.326.192-.486a11.9,11.9,0,0,1,.554-1.108h0c.132-.238.271-.473.4-.711.043-.071.083-.144.124-.215Zm113.6-55.326c-.035-.061-.061-.121-.089-.177h0c0-.025-.025-.046-.035-.071a1.6,1.6,0,0,1-.17.068c-.111.043-.225.083-.342.116s-.164.051-.253.071l-.225.058.02.046c.094-.02.185-.038.278-.063l.025.314c.106,0,.2-.015.3-.015h.643C383.243,97.885,383.187,97.766,383.142,97.652Z" transform="translate(-200.961 -58.66)" fill="url(#linear-gradient-2)"/>
    <path id="Tracé_312" data-name="Tracé 312" d="M524.8,355.636l-1.518.67s-9.9,38.442-9.9,41.549,20.982,20.4,20.982,20.4l3.274-22.1S532.945,345.478,524.8,355.636Z" transform="translate(-397.905 -279.482)" fill="#e8f5ff"/>
    <path id="Tracé_313" data-name="Tracé 313" d="M689.825,222.4l-8.767-4.574a17.566,17.566,0,0,0-2.57-5.857,13.051,13.051,0,0,0-5.114-4.62c-5.371-2.409,22.72-15.051,22.72-15.051a45.772,45.772,0,0,0,1.561,4.478c1.447,3.572,3.848,8.192,6.942,9.508C709.859,208.526,689.825,222.4,689.825,222.4Z" transform="translate(-516.902 -158.477)" fill="#ffc1c7"/>
    <path id="Tracé_314" data-name="Tracé 314" d="M697.656,196.778a20.944,20.944,0,0,1-19.168,15.193,13.049,13.049,0,0,0-5.113-4.62C668,204.943,696.1,192.3,696.1,192.3A45.622,45.622,0,0,0,697.656,196.778Z" transform="translate(-516.902 -158.477)" opacity="0.1"/>
    <path id="Tracé_315" data-name="Tracé 315" d="M650.883,122.986a20.833,20.833,0,1,1-6.1-14.826A20.932,20.932,0,0,1,650.883,122.986Z" transform="translate(-469.34 -91.068)" fill="#9f616a"/>
    <path id="Tracé_316" data-name="Tracé 316" d="M636.3,230.765l-5.708,13.318-5.035,8.84H609.441l-4.7-12.086,1.905-12.534h12.309l7.947-.448,2.684-.9,1.731.982Z" transform="translate(-451.736 -169.526)" fill="#575a89"/>
    <path id="Tracé_317" data-name="Tracé 317" d="M737.865,230.462s3.56.759.372,3.373S724.05,244.76,724.05,244.76s3.863,3.441,3.064,7.471l12.8-7.135,2.277-11.416S742.446,230.25,737.865,230.462Z" transform="translate(-555.266 -186.976)" opacity="0.1"/>
    <path id="Tracé_318" data-name="Tracé 318" d="M702.448,287l-8.142,1.343s1.68,6.211.84,7.975a1.17,1.17,0,0,0-.063.17l-3.322,8.979,2.49,7.051,8.617-11.752-2.937-4.448a40.94,40.94,0,0,1,4.952-5.541C706.728,289.351,702.448,287,702.448,287Z" transform="translate(-531.146 -229.217)" opacity="0.1"/>
    <path id="Tracé_319" data-name="Tracé 319" d="M702.448,285.63l-8.142,1.341s1.68,6.211.84,7.975a1.162,1.162,0,0,0-.063.17l-3.322,8.979,2.49,7.051,8.617-11.76-2.937-4.448a40.94,40.94,0,0,1,4.952-5.541C706.728,287.97,702.448,285.63,702.448,285.63Z" transform="translate(-531.146 -228.193)" fill="#dce6f2"/>
    <path id="Tracé_320" data-name="Tracé 320" d="M738.206,227.812s3.56.759.369,3.373-14.525,11.6-14.525,11.6,4.2,2.77,3.4,6.8l12.8-7.132,2.277-11.416S742.78,227.6,738.206,227.812Z" transform="translate(-555.266 -184.997)" fill="#575a89"/>
    <path id="Tracé_321" data-name="Tracé 321" d="M670.074,273.18s.777,1.452,4.205,4.071c0,0-5.708,3.036-3.524,7.3l-8.731-2.277-1.343-4.2Z" transform="translate(-507.929 -218.893)" opacity="0.1"/>
    <path id="Tracé_322" data-name="Tracé 322" d="M668.752,271.86s.777,1.452,4.2,4.071c0,0-5.708,3.021-3.524,7.3l-8.729-2.277-1.344-4.195Z" transform="translate(-506.943 -217.907)" fill="#575a89"/>
    <path id="Tracé_323" data-name="Tracé 323" d="M693.24,292.324l-5.708,13.318-5.025,8.84H666.381l-4.7-12.086,1.9-12.534h3.423c-.056,2.925,1.012,6.361.944,7.638-.117,2.1,3.132,13.43,3.132,13.43s6.8-11,9.483-11.975c1.688-.615,5.263-5.731,7.689-9.455Z" transform="translate(-508.676 -231.084)" opacity="0.1"/>
    <path id="Tracé_324" data-name="Tracé 324" d="M634.221,347.648l-.579.729s4.2,21.068,3.036,25.852a13.6,13.6,0,0,0-.336,2.626v.038a50.658,50.658,0,0,0,1.265,11.186s1.174,18.621.506,26.28h-78.59c-.46-11.325-.956-26-.506-27.624.759-2.684,2.277-12.423,2.277-12.423l.167-4.615s0-4.46.137-9.43c.058-2.234.144-4.579.268-6.659a35.128,35.128,0,0,1,.688-5.9,13,13,0,0,0,.324-2.5,1.312,1.312,0,0,1,.015-.24c0-.253.026-.526.036-.807v-.253c.048-1.629.03-3.562-.023-5.566v-.332c-.043-1.5-.106-3.036-.177-4.493-.22-4.554-.506-8.4-.506-8.4l-9.653-31.98,2.6-6.406,7.218-4.423,13.346-8.058c6.51-5.351,10.8-4.708,12.43-4.122a4.332,4.332,0,0,1,.466.19c.051.025.091.046.129.068a1.061,1.061,0,0,1,.149.086h0a3.082,3.082,0,0,0-1.134.934,4.134,4.134,0,0,0-.7,1.518,7.114,7.114,0,0,0-.18,1.035c-.033.367-.045.746-.045,1.128a19.564,19.564,0,0,0,.215,2.5v.056c.083.592.187,1.171.288,1.715a.118.118,0,0,0,0,.028c.117.635.233,1.222.312,1.728.015.091.028.175.04.253a5.766,5.766,0,0,1,.079,1.012,12.3,12.3,0,0,0,.329,2.429c.066.334.142.691.225,1.063.114.506.238,1.058.372,1.619.073.309.152.627.233.944.03.127.063.253.093.382l.051.2c.539,2.143,1.123,4.276,1.483,5.566.213.759.347,1.227.347,1.227a94.455,94.455,0,0,1,6.851-9.667c.046-.051.086-.1.129-.144.3-.347.6-.663.88-.941a5.2,5.2,0,0,1,1.625-1.22,1.771,1.771,0,0,0,.276-.129c1.245-.706,3.254-3.269,5.134-5.953.185-.253.364-.529.546-.789.418-.6.822-1.207,1.2-1.786.293-.443.574-.873.84-1.283,1.265-1.969,2.156-3.436,2.156-3.436l1.756-.079.306-.015h.205l7.972-.369s.344.058.911.172a.163.163,0,0,1,.094.02c2.829.562,10.687,2.34,11.168,4.807.587,3.021,13.263,7.051,13.263,7.051.167,2.024,3.271,3.357,3.271,3.357s4.7,12.423,3.443,17.291c-1.242,4.807,3.234,16.7,3.353,17.033h0l-.858,1.083Z" transform="translate(-427.172 -216.323)" fill="#e8f5ff"/>
    <path id="Tracé_325" data-name="Tracé 325" d="M747.184,225.422s7.76-2.2,9.523,2.33,5.708,22.832,5.708,22.832-10.242,1.93-12.926,0a7.734,7.734,0,0,0-5.457-1.427L738.24,253.1l-1.71-.506s9.265-13.774,11.279-18.454S750.5,227.368,747.184,225.422Z" transform="translate(-564.588 -182.819)" opacity="0.1"/>
    <path id="Tracé_326" data-name="Tracé 326" d="M745.884,221.422s7.765-2.2,9.536,2.33,5.708,22.832,5.708,22.832-10.239,1.93-12.926,0a7.727,7.727,0,0,0-5.455-1.427l-5.8,3.944-1.711-.506s9.265-13.774,11.279-18.455S749.2,223.373,745.884,221.422Z" transform="translate(-563.625 -179.831)" fill="#e8f5ff"/>
    <path id="Tracé_327" data-name="Tracé 327" d="M571.173,511.55s5.791,1.427,6.884,4.7-4.281,3.357-4.281,3.357S570.5,513.817,571.173,511.55Z" transform="translate(-441 -396.954)" opacity="0.1"/>
    <path id="Tracé_328" data-name="Tracé 328" d="M623.042,607.09s-14.184,29.043-10.91,31.814S623.042,607.09,623.042,607.09Z" transform="translate(-471.297 -468.321)" opacity="0.1"/>
    <path id="Tracé_329" data-name="Tracé 329" d="M734,522.5s11.332,28.211,9.065,32.568,4.868,0,4.868,0Z" transform="translate(-562.698 -405.133)" opacity="0.1"/>
    <path id="Tracé_330" data-name="Tracé 330" d="M710.3,632.64s-38.275,1.847-27.11,13.766,34.078.506,34.078.506Z" transform="translate(-523.221 -487.407)" fill="#9f616a"/>
    <path id="Tracé_331" data-name="Tracé 331" d="M652.952,122.994a20.832,20.832,0,0,1-1.587,8c-.352.041-.7.066-1.042.081-.506-1.111-.235-2.393-.225-3.616s-.44-2.659-1.617-2.988c-2.345-.66-3.965,3.724-6.277,2.932-1.771-.6-1.308-3.289-2.328-4.84-.807-1.227-2.424-1.574-3.681-2.343-2.674-1.642-2.593-4.268-3.836-6.753-1.3-2.6-4.048-1.834-6.434-.3-1.812,1.169-3.375,2.735-5.313,3.666a13.144,13.144,0,0,1-5.422,1.146,11.914,11.914,0,0,1-3.4-.359,20.931,20.931,0,0,1,41.16,5.371Z" transform="translate(-471.409 -91.076)" opacity="0.1"/>
    <path id="Tracé_332" data-name="Tracé 332" d="M613.154,85.633c-1.814,1.169-3.375,2.732-5.313,3.669a13.182,13.182,0,0,1-5.422,1.144c-2.277.051-4.729-.349-6.285-1.994a6.062,6.062,0,0,1-1.166-5.845,9.492,9.492,0,0,1,3.757-4.84c1.7-1.2,3.679-2.024,4.807-3.737a30.269,30.269,0,0,0,1.381-2.937c1.586-3.084,5.154-4.754,8.6-4.962s6.867.82,10.151,1.933,6.593,2.338,10.06,2.568a14.345,14.345,0,0,1,4.58.584c1.925.782,3.188,2.652,4.048,4.554a15.227,15.227,0,0,1,1.462,6.831c-.213,5-3.517,9.91-2.065,14.7.385,1.278,1.106,2.588.721,3.866-.561,1.865-2.968,2.29-4.913,2.378-.506-1.111-.235-2.4-.225-3.616s-.44-2.659-1.614-2.988c-2.348-.655-3.967,3.722-6.275,2.932-1.758-.6-1.3-3.289-2.325-4.84-.807-1.23-2.427-1.574-3.681-2.343-2.674-1.642-2.593-4.268-3.836-6.753C618.293,83.325,615.542,84.094,613.154,85.633Z" transform="translate(-458.629 -64.209)" fill="#383838"/>
    <path id="Tracé_333" data-name="Tracé 333" d="M508.941,512.9l-1.93.673s.759,11.416-1.771,14.69,8.309,11.413,8.309,11.413,14.857-.084,15.277-1.265-.759-21.152-.759-21.152-7.975-3.107-7.3-8.058c0,0-2.434,11.666-6.042,11.163S507.016,516.846,508.941,512.9Z" transform="translate(-391.531 -395.198)" fill="#e8f5ff"/>
    <ellipse id="Ellipse_2828" data-name="Ellipse 2828" cx="5.093" cy="4.658" rx="5.093" ry="4.658" transform="translate(118.757 119.381)" opacity="0.1"/>
    <path id="Tracé_334" data-name="Tracé 334" d="M515.654,451.323s-1.012-30.887-9.822-24.005-8.9,15.112-7.218,17.544,7.056,14.6,7.056,14.6h0a6.156,6.156,0,0,0,9.108-4.048Z" transform="translate(-386.235 -333.286)" fill="#9f616a"/>
    <path id="Tracé_335" data-name="Tracé 335" d="M583.52,213.539a.744.744,0,0,0-.228-.349c-.435-.4-1.371-.536-2.783-.415l.058.668c1.882-.162,2.254.213,2.3.276v.063l.058.083a2.824,2.824,0,0,1,.506,2.227c-.412,2.062-2.945,3.7-2.97,3.722l-.061.035-.038.058c-1.093,1.622-7.274,6.2-8.891,7.383l-.142-.162c-.724.627-7.084,6.2-7.428,8.329-.223,1.338-1.73,1.857-2.277,2a14.3,14.3,0,0,1-3.423-3.6c-.913-1.571,2.763-4.638,3.087-5.834l-.506-.519c-.053.192-4.774,4.6-3.461,6.859a15.019,15.019,0,0,0,3.648,3.869c-.215,1.953-1.553,13.422-3.61,16.139-2.555,3.378-4.7,20.4-4.466,26.343.21,5.28-1.169,15.254-5.774,19.538a7.38,7.38,0,0,1-6.09,2.024h-.111a17.969,17.969,0,0,1-12.357-4.048c-4.592-3.863-7.193-10.168-7.735-18.745h-.111l-.045-2.5a4.871,4.871,0,1,0-.726.058H520l.046,2.482-.223.015c.557,8.855,3.289,15.406,8.1,19.451a18.722,18.722,0,0,0,13.058,4.273,9.364,9.364,0,0,0,1.012.056,8.3,8.3,0,0,0,5.819-2.34c4.85-4.516,6.325-14.857,6.1-20.317-.253-6.3,2-22.708,4.263-25.7,2.216-2.932,3.56-14.358,3.8-16.572a3.809,3.809,0,0,0,2.925-2.783c.223-1.336,4.471-5.452,7.084-7.732l-.078-.091a98.448,98.448,0,0,0,7.949-6.345c.673-.645,1.341-1.29,2.039-1.905a6.529,6.529,0,0,0,2.189-3.322A3.453,3.453,0,0,0,583.52,213.539Z" transform="translate(-399.146 -173.739)" opacity="0.1"/>
    <path id="Tracé_336" data-name="Tracé 336" d="M684.05,280.7a15.481,15.481,0,0,1-3.889-4.048c-1.311-2.254,3.411-6.664,3.461-6.857l.506.519c-.321,1.194-4,4.263-3.084,5.832a14.7,14.7,0,0,0,3.6,3.732Z" transform="translate(-522.31 -216.369)" fill="#353146"/>
    <path id="Tracé_337" data-name="Tracé 337" d="M735.595,226.787l-.395-.544c.081-.058,8.028-5.807,9.28-7.666l.04-.056.058-.038c.025-.018,2.558-1.657,2.97-3.722a2.807,2.807,0,0,0-.506-2.224l-.058-.086v-.061c-.051-.066-.423-.438-2.3-.276l-.058-.67c1.414-.121,2.348.018,2.783.415a.76.76,0,0,1,.23.352,3.455,3.455,0,0,1,.572,2.684,6.49,6.49,0,0,1-2.188,3.322c-.7.615-1.366,1.265-2.037,1.905A106.257,106.257,0,0,1,735.595,226.787Z" transform="translate(-563.595 -172.746)" fill="#e8f5ff"/>
    <rect id="Rectangle_1162" data-name="Rectangle 1162" width="0.67" height="4.076" transform="translate(120.529 102.381) rotate(-1.05)" fill="#e8f5ff"/>
    <circle id="Ellipse_2829" data-name="Ellipse 2829" cx="4.896" cy="4.896" r="4.896" transform="translate(115.579 93.194)" fill="#00b36d"/>
    <circle id="Ellipse_2830" data-name="Ellipse 2830" cx="4.066" cy="4.066" r="4.066" transform="translate(116.409 94.024)" fill="#e8f5ff"/>
    <path id="Tracé_338" data-name="Tracé 338" d="M554.826,344.514a9.367,9.367,0,0,1-1.012-.053,18.749,18.749,0,0,1-13.058-4.273c-4.807-4.048-7.535-10.591-8.1-19.454l1.012-.063c.541,8.577,3.142,14.884,7.737,18.745a18.04,18.04,0,0,0,12.354,4.048h.111a7.4,7.4,0,0,0,6.092-2.024c4.6-4.284,5.981-14.257,5.771-19.537-.253-5.948,1.9-22.971,4.453-26.346,2.239-2.958,3.628-16.289,3.643-16.423l.038-.379.375-.066c.023,0,2.209-.415,2.482-2.049.354-2.13,6.7-7.7,7.426-8.329l.66.759c-2.624,2.277-6.872,6.4-7.084,7.734a3.8,3.8,0,0,1-2.922,2.783c-.253,2.216-1.586,13.64-3.8,16.572-2.262,2.988-4.516,19.4-4.263,25.7.218,5.46-1.242,15.8-6.093,20.317A8.3,8.3,0,0,1,554.826,344.514Z" transform="translate(-412.299 -215.256)" fill="#353146"/>
    <g id="Groupe_30" data-name="Groupe 30" transform="translate(136.269 18.04)" opacity="0.1">
      <path id="Tracé_339" data-name="Tracé 339" d="M783,147.46c.415-1.533.916-3.077,1.265-4.63C783.848,144.391,783.344,145.927,783,147.46Z" transform="translate(-735.57 -139.564)"/>
      <path id="Tracé_340" data-name="Tracé 340" d="M638.733,149.865c-.506-1.111-.235-2.4-.225-3.615s-.44-2.646-1.614-2.988c-2.348-.655-3.967,3.724-6.275,2.932-1.771-.6-1.3-3.289-2.325-4.84-.807-1.23-2.424-1.574-3.679-2.343-2.677-1.642-2.6-4.268-3.836-6.753-1.3-2.606-4.048-1.837-6.437-.3-1.814,1.169-3.375,2.735-5.313,3.669a13.182,13.182,0,0,1-5.422,1.144c-2.264.053-4.729-.349-6.285-1.994a5.875,5.875,0,0,1-1.384-4.858c-.043.119-.081.238-.119.357a6.08,6.08,0,0,0,1.167,5.845c1.556,1.645,4.02,2.044,6.285,1.994a13.194,13.194,0,0,0,5.425-1.144c1.943-.936,3.5-2.5,5.313-3.669,2.388-1.538,5.136-2.307,6.437.3,1.24,2.485,1.161,5.111,3.835,6.753,1.265.759,2.872,1.113,3.681,2.343,1.012,1.556.564,4.235,2.325,4.84,2.3.789,3.924-3.588,6.272-2.932,1.174.329,1.627,1.771,1.614,2.988s-.276,2.5.225,3.616c1.946-.089,4.352-.506,4.916-2.378a2.732,2.732,0,0,0,.106-.827C642.6,149.422,640.484,149.786,638.733,149.865Z" transform="translate(-595.536 -129.92)"/>
    </g>
    <path id="Tracé_341" data-name="Tracé 341" d="M823.844,371l2.938,3.107s2.35,17.121,3.524,18.723,3.947,7.972,1.343,12.757c0,0-.84,2.6-.336,3.694s-3.775,6.548-3.775,6.548-5.625,5.035-6.8,5.791-7.385,6.8-9.483,6.882-2.783,2.687-2.783,2.687l-11.836.42s-6.538-.342-7.96.582c0,0,.759-9.989-6.545-16.537l9.316-3.357s3.527-1.518,4.617-3.1a5.7,5.7,0,0,1,2.783-2.1s2.6-1.847,2.684-2.854,3.18-2.242,3.18-2.242l-1.753-14.966.923-24.845s2.938-20.818,9.149-19.641S823.844,371,823.844,371Z" transform="translate(-598.651 -270.675)" opacity="0.1"/>
    <path id="Tracé_342" data-name="Tracé 342" d="M827.844,371l2.937,3.107s2.351,17.121,3.525,18.723,3.947,7.972,1.343,12.757c0,0-.837,2.6-.334,3.694s-3.778,6.548-3.778,6.548-5.624,5.035-6.8,5.791-7.385,6.8-9.483,6.882-2.783,2.687-2.783,2.687l-11.836.42s-6.543-.342-7.959.582c0,0,.759-9.989-6.546-16.537l9.316-3.357s3.527-1.518,4.617-3.1a5.7,5.7,0,0,1,2.783-2.1s2.6-1.847,2.685-2.854,3.18-2.242,3.18-2.242l-1.753-14.966.923-24.845s2.937-20.818,9.149-19.641S827.844,371,827.844,371Z" transform="translate(-601.639 -270.675)" fill="#e8f5ff"/>
    <path id="Tracé_343" data-name="Tracé 343" d="M907.84,551.76s8.645-2.277,10.912.506S907.84,551.76,907.84,551.76Z" transform="translate(-692.555 -426.335)" opacity="0.1"/>
    <path id="Tracé_344" data-name="Tracé 344" d="M899.88,569.44c2.937,2.057,12,2.141,12,2.141Z" transform="translate(-686.609 -440.197)" opacity="0.1"/>
    <path id="Tracé_345" data-name="Tracé 345" d="M917.46,610.08c.253.083,6.232,6.464,8.741,4.534S917.46,610.08,917.46,610.08Z" transform="translate(-699.742 -470.555)" opacity="0.1"/>
    <path id="Tracé_346" data-name="Tracé 346" d="M599.22,398.42s1.756,12.089.891,17.012,2.292,11.024,2.292,11.024Z" transform="translate(-462.019 -312.447)" opacity="0.1"/>
    <path id="Tracé_347" data-name="Tracé 347" d="M374.706,411.056c-2.024,1.586-3.5,5.341-4.572,9.468a101.866,101.866,0,0,0-2.477,15.545s-16.117-3.694-14.943-5.371c.739-1.055-.253-9-1.08-14.768-.493-3.405-.934-6.049-.934-6.049S380.246,406.689,374.706,411.056Z" transform="translate(-276.377 -320.167)" fill="#9f616a"/>
    <path id="Tracé_348" data-name="Tracé 348" d="M374.706,409.73c-2.024,1.589-3.5,5.341-4.572,9.468a18.6,18.6,0,0,1-18.5-4.592c-.493-3.408-.934-6.052-.934-6.052S380.246,405.365,374.706,409.73Z" transform="translate(-276.377 -319.177)" opacity="0.1"/>
    <path id="Tracé_349" data-name="Tracé 349" d="M369.736,325.759a18.642,18.642,0,1,1-4.1-11.659A18.642,18.642,0,0,1,369.736,325.759Z" transform="translate(-262.744 -244.249)" fill="#9f616a"/>
    <path id="Tracé_350" data-name="Tracé 350" d="M519.509,783.329H514.2l-.448-9.384-.468-9.713s1.207-.18,3.13-.448l.777-.1h.063c.42,1.971.835,4,1.235,6.017a61.819,61.819,0,0,1,1.035,10.879v.744C519.534,782,519.519,782.671,519.509,783.329Z" transform="translate(-397.823 -585.293)" opacity="0.1"/>
    <path id="Tracé_351" data-name="Tracé 351" d="M337.143,578.136H270.51c.288-.655.481-1.052.481-1.052s5.331-23.323,8.041-33.19a.141.141,0,0,0,0-.025,39.45,39.45,0,0,1,1.225-3.96h0a1.357,1.357,0,0,1,.119-.253c1.341-2.181,3.021-4.531.67-7.889s-1.518-18.131-1.518-18.131,2.854-12.592,5.875-19.307a9.032,9.032,0,0,1,1.918-2.783,7.854,7.854,0,0,1,.84-.714h0a7.415,7.415,0,0,1,.7-.468l.048-.03a10.151,10.151,0,0,1,4.132-1.283,11.78,11.78,0,0,1,3.1.086,46.26,46.26,0,0,1,11.937,3.289c8.448,3.712,11.006,8.686,11.056,8.79h0l.02.043c.339.792,5.3,12.37,7.084,17.771a7.572,7.572,0,0,1,.615,2.667c-.506,1.341,3.861,18.128,3.861,18.128s2.024,8.1,4.048,17.587c.089.395.172.789.253,1.189.362,1.723.721,3.479,1.068,5.232a61.5,61.5,0,0,1,1.035,10.955Q337.176,576.507,337.143,578.136Z" transform="translate(-216.476 -380.1)" fill="#ff748e"/>
    <path id="Tracé_352" data-name="Tracé 352" d="M344.59,464.729s-4.6-1.771-4.542.916,1.121,3.972.784,4.364.167,2.743.167,2.743,6.211,0,9.065,1.285,13.374,3.861,14.718,4.645,6.325,4.3,6.325,4.3l.448-6.659a37.987,37.987,0,0,0-13.6-6.434A54.222,54.222,0,0,1,344.59,464.729Z" transform="translate(-268.42 -361.551)" opacity="0.1"/>
    <path id="Tracé_353" data-name="Tracé 353" d="M344.59,463.4s-4.6-1.771-4.542.916,1.121,3.972.784,4.364.167,2.743.167,2.743,6.211,0,9.065,1.288,13.374,3.861,14.718,4.643,6.325,4.3,6.325,4.3l.453-6.639a37.991,37.991,0,0,0-13.6-6.434A53.8,53.8,0,0,1,344.59,463.4Z" transform="translate(-268.42 -360.558)" fill="#ff748e"/>
    <path id="Tracé_354" data-name="Tracé 354" d="M412.85,528.43s8.784,9.511,8.337,12.145S412.85,528.43,412.85,528.43Z" transform="translate(-322.802 -409.563)" opacity="0.1"/>
    <path id="Tracé_355" data-name="Tracé 355" d="M434.918,741.85s-3.413,6.94-1.566,6.492S434.918,741.85,434.918,741.85Z" transform="translate(-337.708 -568.986)" fill="none"/>
    <path id="Tracé_356" data-name="Tracé 356" d="M330.182,664.22s-6.439,5.933-8.337,6.27,1.455,1.455,3.636.562,6.831-3.244,6.831-3.244Z" transform="translate(-254.404 -510.997)" opacity="0.1"/>
    <path id="Tracé_357" data-name="Tracé 357" d="M467.277,781.566H452.261c-2.1-1.822-4.086-3.509-5.351-4.524A17.461,17.461,0,0,1,442.5,771.1c-.21-.438-.392-.848-.547-1.22a20.337,20.337,0,0,1-.729-1.961l11.12-6.6a17.388,17.388,0,0,1,1.728,1.69l.134.154a4.565,4.565,0,0,1,1.209,2.234c.056.789,2.252,3.843,4.5,6.776,2.277,2.983,4.61,5.834,4.764,6.027h0s.385.523,1.012,1.328C466.126,780.111,466.673,780.81,467.277,781.566Z" transform="translate(-343.994 -583.53)" fill="#9f616a"/>
    <path id="Tracé_358" data-name="Tracé 358" d="M365.662,314.128a10.85,10.85,0,0,0-1.083,3.8c-.2,3.871.124,12.526-4.162,14.47-2.123.956-4.395-1.144-6.723-1.194a5.465,5.465,0,0,0-4.233,2.355,25.494,25.494,0,0,0-2.4,4.407,30.11,30.11,0,0,1-2.325,3.922,9.874,9.874,0,0,1-.86,1.085,18.637,18.637,0,1,1,21.784-28.83Z" transform="translate(-262.771 -244.277)" opacity="0.1"/>
    <path id="Tracé_359" data-name="Tracé 359" d="M305.621,294.429c-.2,3.871.124,12.526-4.165,14.467-2.123.956-4.395-1.141-6.722-1.192a5.467,5.467,0,0,0-4.233,2.353,25.342,25.342,0,0,0-2.4,4.41,30.18,30.18,0,0,1-2.325,3.922,5.692,5.692,0,0,1-1.9,1.9c-1.4.729-3.089.319-4.587-.149q-2.915-.918-5.743-2.07a5.808,5.808,0,0,0,.066-.86c-.056.106-.116.2-.177.311l-.119.207c-.215.38-.425.759-.617,1.149-.073.149-.144.3-.207.458a5.821,5.821,0,0,0-.473,1.812c-.129,1.688.7,3.289,1.442,4.807,2.841,5.872,4.6,12.739,2.459,18.9-.926,2.679-2.53,5.06-3.7,7.648a24.711,24.711,0,0,0-1.728,14.619c.585,3.066,1.756,6.1,1.467,9.212-.506,5.351-5.121,9.334-9.743,12.071-2.5,1.473-5.554,2.783-8.205,1.619,1.69-1.973,2.125-4.7,2.49-7.279q1.5-10.538,3-21.086.6-4.2,1.2-8.395c.744-5.258,1.5-10.573,1.032-15.864-.339-3.9-1.3-8.038.395-11.568.893-1.87,2.485-3.418,2.98-5.432.407-1.637.028-3.378.3-5.045a8.587,8.587,0,0,1,.739-2.186,10.736,10.736,0,0,1,1.7-2.586,2.894,2.894,0,0,1-1.7-1.035,2.906,2.906,0,0,0,.759-3.5,10.769,10.769,0,0,0-2.368-3.059,5.906,5.906,0,0,1-1.855-3.34c-.215-2.457,2.239-4.359,2.672-6.783.438-2.467-1.293-4.865-1.154-7.363.162-3.018,2.935-5.212,5.672-6.485a25.807,25.807,0,0,1,13.227-2.277c3.689.349,7.259,1.49,10.938,1.933,2.219.253,4.468.278,6.672.668a10.719,10.719,0,0,1,5.964,2.829C310.752,286.427,305.854,289.936,305.621,294.429Z" transform="translate(-204.15 -221.465)" fill="#383838"/>
    <path id="Tracé_360" data-name="Tracé 360" d="M354.908,610.066c-1.29-.559-3.638-.225-7.669-1.452s-4.807-6.773-4.807-6.773v-.018h0c-.048-.127-.423-.951-2.958-3.841-2.8-3.191-8.855-19.3-8.855-19.3s-5.369-5.766-5.2-7.892-.954-7.78-.843-14.105,12.086-10.52,12.086-10.52c23.057-4.086,17.627,22.5,17.012,24.509s2.576,7.454,2.576,7.454c-.45,2.368,1.847,6.034,1.847,6.034s.557,3.244.671,4.476a.765.765,0,0,0,.038.167c.369,1.161,3.38,2.214,4.6,2.854,1.288.673,5.43,6.548,5.43,6.548C369.734,602.517,356.193,610.633,354.908,610.066Z" transform="translate(-256.857 -422.49)" opacity="0.1"/>
    <path id="Tracé_361" data-name="Tracé 361" d="M357.565,606.1c-1.288-.562-3.638-.225-7.666-1.455s-4.807-6.771-4.807-6.771v-.018h0c-.046-.129-.423-.951-2.958-3.841-2.8-3.19-8.855-19.307-8.855-19.307s-5.369-5.764-5.2-7.889-.951-7.78-.84-14.1,12.079-10.513,12.079-10.513c23.057-4.086,17.627,22.5,17.012,24.509s2.576,7.454,2.576,7.454c-.45,2.368,1.847,6.034,1.847,6.034s.557,3.244.673,4.476a.639.639,0,0,0,.036.167c.369,1.161,3.38,2.214,4.607,2.854,1.285.67,5.43,6.548,5.43,6.548C372.394,598.559,358.853,606.676,357.565,606.1Z" transform="translate(-258.844 -419.539)" fill="#ff748e"/>
    <path id="Tracé_362" data-name="Tracé 362" d="M376.8,598.32s10.072,10.626,12.7,10.626S376.8,598.32,376.8,598.32Z" transform="translate(-295.873 -461.77)" opacity="0.1"/>
    <path id="Tracé_363" data-name="Tracé 363" d="M410.3,733.223c-1.288-.562-3.638-.225-7.666-1.455S397.83,725,397.83,725v-.018h0c2.669-1.771,9.43-6.773,12.094-8.6a18.662,18.662,0,0,0,4.3-4.418c.369,1.161,3.38,2.214,4.607,2.854,1.285.67,5.43,6.548,5.43,6.548C425.132,725.678,411.591,733.8,410.3,733.223Z" transform="translate(-311.583 -546.658)" fill="#ff748e"/>
    <g id="Groupe_31" data-name="Groupe 31" transform="translate(49.86 60.02)" opacity="0.1">
      <path id="Tracé_364" data-name="Tracé 364" d="M302,406.185c.013.02.03.038.046.058.076-.1.154-.192.235-.283A1.887,1.887,0,0,1,302,406.185Z" transform="translate(-289.858 -378.099)"/>
      <path id="Tracé_365" data-name="Tracé 365" d="M272.022,437.108a9.545,9.545,0,0,1,1.561-3.876c-.46-.177-.921-.357-1.376-.544a5.725,5.725,0,0,0,.066-.858,9.834,9.834,0,0,0-1.594,3.934c-.129,1.69.7,3.289,1.442,4.807,2.844,5.87,4.6,12.736,2.459,18.9-.928,2.677-2.53,5.06-3.7,7.648a24.7,24.7,0,0,0-1.726,14.616c.579,3.069,1.753,6.1,1.465,9.212-.506,5.351-5.118,9.334-9.743,12.069a12.119,12.119,0,0,1-6.211,2.07,7.662,7.662,0,0,1-.653.9c2.654,1.171,5.708-.147,8.205-1.624,4.628-2.732,9.25-6.7,9.756-12.066.288-3.109-.885-6.143-1.467-9.212a24.72,24.72,0,0,1,1.72-14.616c1.164-2.586,2.783-4.972,3.7-7.649,2.138-6.163.382-13.03-2.459-18.9C272.73,440.389,271.893,438.8,272.022,437.108Z" transform="translate(-254.01 -397.423)"/>
      <path id="Tracé_366" data-name="Tracé 366" d="M364.341,296.548a7.309,7.309,0,0,0-.8-.708c3.066,3.977-1.361,7.358-1.581,11.638-.2,3.871.126,12.529-4.162,14.467-2.12.959-4.395-1.141-6.72-1.192a5.477,5.477,0,0,0-4.235,2.355,25.221,25.221,0,0,0-2.4,4.407,30.287,30.287,0,0,1-2.328,3.922,5.552,5.552,0,0,1-1.9,1.9c-1.392.726-3.084.319-4.584-.152q-2.189-.688-4.337-1.518a5.484,5.484,0,0,1-.066.787q2.831,1.154,5.746,2.07c1.5.471,3.19.878,4.584.152a5.693,5.693,0,0,0,1.9-1.9,29.822,29.822,0,0,0,2.325-3.919,25.25,25.25,0,0,1,2.4-4.41,5.478,5.478,0,0,1,4.233-2.353c2.328.051,4.6,2.151,6.722,1.192,4.289-1.938,3.962-10.6,4.162-14.467C363.537,304.316,368.435,300.809,364.341,296.548Z" transform="translate(-311.693 -295.84)"/>
    </g>
    <path id="Tracé_367" data-name="Tracé 367" d="M309.13,419.965c-.215.379-.425.759-.617,1.149-.073.149-.144.3-.208.458-1.326-1.336-4.554-4.511-6.356-5.5a10.793,10.793,0,0,1,1.7-2.586S307.939,415.76,309.13,419.965Z" transform="translate(-239.961 -323.704)" opacity="0.1"/>
    <path id="Tracé_368" data-name="Tracé 368" d="M309.249,417.778c-.994-4.5-5.6-6.938-5.6-6.938a10.747,10.747,0,0,0-1.7,2.586c1.9,1.04,5.4,4.526,6.563,5.708Z" transform="translate(-239.961 -321.724)" fill="#ff748e"/>
  </g>
</svg>
