<svg xmlns="http://www.w3.org/2000/svg" width="522.427" height="554.83" viewBox="0 0 522.427 554.83">
  <g id="undraw_play_time_7k7b" transform="translate(0 0)">
    <path id="Tracé_219" data-name="Tracé 219" d="M696.587,770.265c-12,0-23.46.23-33.949.648a1.6,1.6,0,0,0,.03-.258c0-3.639-12.5-6.964-33.113-9.5,60.707-3.3,101.4-9.349,101.4-16.271,0-10.446-92.653-18.914-206.945-18.914s-206.945,8.468-206.945,18.914c0,1.948,3.226,3.827,9.21,5.6-35.655,1.211-61.276,4.55-61.276,8.481,0,4.952,40.67,8.967,90.84,8.967,16.06,0,31.143-.412,44.234-1.134-3.161,1.23-4.857,2.525-4.857,3.863,0,7.967,59.871,14.425,133.726,14.425,30.685,0,58.951-1.116,81.517-2.99,12.087,3.551,46.08,6.109,86.127,6.109,50.169,0,90.84-4.015,90.84-8.967S746.756,770.265,696.587,770.265Z" transform="translate(-265 -233.37)" fill="#fff"/>
    <path id="Tracé_220" data-name="Tracé 220" d="M360.593,705.4c5.229,19.33,23.14,31.3,23.14,31.3s9.433-19.369,4.2-38.7S364.8,666.7,364.8,666.7,355.364,686.072,360.593,705.4Z" transform="translate(-285.707 -220.316)" fill="#3f3d56"/>
    <path id="Tracé_221" data-name="Tracé 221" d="M360.764,706.729c14.349,13.968,16.1,35.44,16.1,35.44s-21.512-1.175-35.861-15.143-16.1-35.441-16.1-35.441S346.415,692.76,360.764,706.729Z" transform="translate(-278.194 -225.797)" fill="#00b36d"/>
    <path id="Tracé_222" data-name="Tracé 222" d="M601.907,183.117s1.647,1.887-1.175,5.539-.543,11.575,4.817,11.777,7.96,2.447,6.668,5.4-2.846,9.985,2.992,8.916,7.683,1.256,6.649,3.042,2.6-3.552,2.6-3.552,3.253,4.846,7.246,1.454,5.581-34.146-2.559-34.667S601.907,183.117,601.907,183.117Z" transform="translate(-338.68 -113.327)" fill="#2f2e41"/>
    <path id="Tracé_223" data-name="Tracé 223" d="M390.505,276.542l1.855,12.984h8.348l-2.783-14.839Z" transform="translate(-86.012 -60.502)" fill="#9f616a"/>
    <path id="Tracé_224" data-name="Tracé 224" d="M663.146,377.83s11.13,10.2,8.347,11.13-12.985,12.057-14.839,12.985c-1.659.83-19.477,6.492-16.695,0s9.275-10.2,9.275-10.2l1.855-11.13Z" transform="translate(-347.523 -156.689)" fill="#f2f2f2"/>
    <path id="Tracé_225" data-name="Tracé 225" d="M663.146,377.83s11.13,10.2,8.347,11.13-12.985,12.057-14.839,12.985c-1.659.83-19.477,6.492-16.695,0s9.275-10.2,9.275-10.2l1.855-11.13Z" transform="translate(-347.523 -156.689)" opacity="0.1"/>
    <path id="Tracé_226" data-name="Tracé 226" d="M404.779,264.052l1.855,12.985h8.347L412.2,262.2Z" transform="translate(-89.156 -57.751)" fill="#9f616a"/>
    <path id="Tracé_227" data-name="Tracé 227" d="M625.047,296.22,637.2,256.026s-20.4-18.55-6.492-24.114,17.622,22.259,17.622,22.259L643.7,302.4H625.146Z" transform="translate(-344.303 -124.387)" fill="#9f616a"/>
    <path id="Tracé_228" data-name="Tracé 228" d="M655.6,276.725s-23.971,30.745-20.333,35.314S645.4,344.431,645.4,344.431s-.927,11.13,2.783,11.13,12.985-1.855,12.985-4.637-8.347-38.027-8.347-38.027l24.115-31.534Z" transform="translate(-346.473 -134.42)" fill="#00b36d"/>
    <path id="Tracé_229" data-name="Tracé 229" d="M660.259,275.436l24.114-12.985s16.695,8.347,12.057,15.767-25.969,26.9-25.969,26.9,6.492,31.534,5.565,32.462-11.13,4.637-13.912,3.71-17.622-37.1-13.912-38.954S663.969,281,663.969,281Z" transform="translate(-349.273 -131.276)" fill="#00b36d"/>
    <path id="Tracé_253" data-name="Tracé 253" d="M20.4,0A20.4,20.4,0,1,1,0,20.4,20.4,20.4,0,0,1,20.4,0Z" transform="translate(213.6 131.176)" fill="#9f616a"/>
    <circle id="Ellipse_2825" data-name="Ellipse 2825" cx="16.695" cy="16.695" r="16.695" transform="translate(263.684 60.687)" fill="#9f616a"/>
    <g id="Groupe_34" data-name="Groupe 34" transform="translate(174.381 276.745)">
      <path id="Tracé_266" data-name="Tracé 266" d="M730.7,636.937l-6.375,24.7-9.562-7.172L706,634.547,717.156,621Z" transform="translate(-694.576 -437.726)" fill="#a0616a"/>
      <path id="Tracé_267" data-name="Tracé 267" d="M867.8,733.12s10.359,7.969,10.359,15.937c0,0,5.578,8.765,11.953,7.969v16.734s19.921,10.359,4.781,12.749-26.3-16.734-26.3-16.734-14.343-23.108-11.953-26.3S867.8,733.12,867.8,733.12Z" transform="translate(-856.372 -539.487)" fill="#3f3d56"/>
      <path id="Tracé_268" data-name="Tracé 268" d="M847.291,490.338s-15.2,16.515-8.027,42.014c0,0,7.968,57.373-17.531,78.888S779.5,679.769,779.5,679.769L798.624,697.3s20.718-47.014,42.233-65.341,23.905-39.045,23.905-39.045V520.4l3.984-30.28Z" transform="translate(-763.294 -490.12)" fill="#3f3d56"/>
      <path id="Tracé_269" data-name="Tracé 269" d="M847.291,490.338s-15.2,16.515-8.027,42.014c0,0,7.968,57.373-17.531,78.888S779.5,679.769,779.5,679.769L798.624,697.3s20.718-47.014,42.233-65.341,23.905-39.045,23.905-39.045V520.4l3.984-30.28Z" transform="translate(-763.294 -490.12)" opacity="0.1"/>
      <path id="Tracé_270" data-name="Tracé 270" d="M632.515,664l7.968,8.766-3.187,7.171-9.562,3.188L611,676.75l2.39-9.562Z" transform="translate(-528.656 -446.461)" fill="#a0616a"/>
      <path id="Tracé_271" data-name="Tracé 271" d="M726.188,773.222s19.124,9.562,23.905,5.578a12.777,12.777,0,0,0,4.768-9.1s9.575,1.131,15.95,5.115,11.156,8.765,19.124,8.765,4.781,9.562-10.359,10.359-53.389-.8-53.389-4.781Z" transform="translate(-646.234 -546.918)" fill="#3f3d56"/>
      <path id="Tracé_272" data-name="Tracé 272" d="M793.782,501.9s10.359,46.217-7.968,98.809c0,0-8.765,29.483-12.75,38.249s-7.968,70.919-6.375,73.31c0,0-12.75,10.359-23.905,3.188,0,0,.8-36.655-.8-39.842s-3.187-31.077,6.375-54.186,1.594-78.887,1.594-78.887-19.124-28.686-4.781-45.42Z" transform="translate(-659.643 -491.542)" fill="#3f3d56"/>
    </g>
    <path id="Tracé_235" data-name="Tracé 235" d="M578.2,288.62s11.129,20.4,16.694,20.4-22.259,21.332-22.259,21.332-9.275-26.9-11.13-27.824S578.2,288.62,578.2,288.62Z" transform="translate(-330.278 -137.04)" fill="#9f616a"/>
    <path id="Tracé_236" data-name="Tracé 236" d="M579.289,310.837s-24.114,8.347-23.187,11.13-6.493,9.275-6.493,12.057-1.855,27.824,9.275,48.229,28.752,35.244,20.4,44.519-21.332,25.042-7.42,25.042,36.172-20.4,56.576-12.985,15.767-20.4,15.767-20.4S647,397.093,641.43,390.6s-25.042-52.866-25.042-58.431-18.55-26.9-23.187-26.9S579.289,310.837,579.289,310.837Z" transform="translate(-327.662 -140.708)" fill="#8985a8"/>
    <path id="Tracé_237" data-name="Tracé 237" d="M624.579,206.546" transform="translate(-344.2 -118.962)" fill="none" stroke="#2f2e41" stroke-miterlimit="10" stroke-width="1"/>
    <path id="Tracé_238" data-name="Tracé 238" d="M630.526,203.664s7.552,14.36,7.95,16.918,13.382-16.918,13.382-16.918l-14.84-10.2Z" transform="translate(-345.51 -116.08)" fill="#9f616a"/>
    <path id="Tracé_239" data-name="Tracé 239" d="M633.513,216.1,649.28,199.41l18.55,8.347s17.3,38.027,18.388,40.809-27.663,15.767-30.446,15.767-22.26-28.752-22.26-28.752S628.875,221.669,633.513,216.1Z" transform="translate(-345.714 -117.39)" fill="#f2f2f2"/>
    <path id="Tracé_240" data-name="Tracé 240" d="M359.579,155.145v16.694h11.13l-3.661-16.694Z" transform="translate(-79.2 -34.172)" fill="#9f616a"/>
    <path id="Tracé_241" data-name="Tracé 241" d="M630.784,265.425a6.918,6.918,0,0,0-6.534,4.392c-.725,1.961-.479,4.022,2.966,4.883,7.42,1.855,8.347,0,8.347,0s12.88-1.855,10.15-5.565-10.15-3.71-10.15-3.71Z" transform="translate(-344.055 -131.931)" fill="#9f616a"/>
    <path id="Tracé_242" data-name="Tracé 242" d="M677.42,368.314s11.13,10.2,8.347,11.13-12.985,12.057-14.839,12.985c-1.659.83-19.477,6.492-16.7,0s9.275-10.2,9.275-10.2l1.855-11.13Z" transform="translate(-350.667 -154.593)" fill="#f2f2f2"/>
    <path id="Tracé_243" data-name="Tracé 243" d="M548.858,266.763c1.276-.748,2.784-1.68,2.821-3.159a2.8,2.8,0,0,0-1.834-2.456,8.21,8.21,0,0,0-3.2-.432,4.173,4.173,0,0,0-1.239.123c-1.056.326-1.665,1.4-2.5,2.126-1.208,1.057-2.872,1.368-4.426,1.771a28.977,28.977,0,0,0-7.419,3.074,3.479,3.479,0,0,0-1.174.966,4.735,4.735,0,0,0-.472,2.4c-.209,3.147-2.1,5.886-3.5,8.708s-2.334,6.337-.681,9.023a30.742,30.742,0,0,1,1.834,2.6c1.172,2.441-.29,5.447.556,8.02a7.015,7.015,0,0,0,1.776,2.662,14.109,14.109,0,0,0,5.844,3.538c2.108.649,4.723,1.082,5.548,3.126.354.877.282,1.911.781,2.714a4.3,4.3,0,0,0,3.047,1.529,13.02,13.02,0,0,0,3.948.286,4.9,4.9,0,0,0,3.405-1.823,9.96,9.96,0,0,1,1.379-2.033c1.343-1.122,3.383-.236,5.108-.533a3.736,3.736,0,0,0,2.927-2.747,5.2,5.2,0,0,1,.594-2.1c1.071-1.371,3.889-.4,4.6-1.992.459-1.033-.5-2.124-1.431-2.767a40.665,40.665,0,0,1-4.57-3.1,5.319,5.319,0,0,1-1.94-4.9c.638-2.689,4.149-4.17,4.266-6.931a4.965,4.965,0,0,0-2.343-3.912,36.128,36.128,0,0,1-3.885-2.72c-.831-.8-1.458-1.815-2.362-2.538-1.635-1.307-3.871-1.465-5.954-1.679-1.117-.115-5.572-.631-5.4-2.332C543.1,269.867,547.724,267.427,548.858,266.763Z" transform="translate(-322.123 -130.89)" fill="#2f2e41"/>
    <path id="Tracé_244" data-name="Tracé 244" d="M630.631,219.63s-10.2,3.71-10.2,8.347-4.637,19.477,0,19.477,13.912-3.56,13.912-3.56Z" transform="translate(-342.832 -121.844)" fill="#f2f2f2"/>
    <path id="Tracé_245" data-name="Tracé 245" d="M628.545,284.575s26.9-9.275,27.824-9.275,13.912-7.42,12.985-10.2l-3.71-23.187S650.8,211.3,661.007,211.3s15.767,24.114,15.767,24.114,22.259,41.737,10.2,51.011-62.141,25.969-64.923,23.187S628.545,284.575,628.545,284.575Z" transform="translate(-343.53 -120.01)" fill="#9f616a"/>
    <path id="Tracé_246" data-name="Tracé 246" d="M660.411,225.06l6.26,6.033-8.115,7.879s-11.13-4.637-10.2-1.855,6.492,11.13,10.2,11.13,23.018-12.057,23.1-15.767-11.973-16.695-14.755-17.622S660.411,225.06,660.411,225.06Z" transform="translate(-349.425 -120.781)" fill="#9f616a"/>
    <path id="Tracé_247" data-name="Tracé 247" d="M648.735,216.39s13.627,12.03,15.482,12.03,5.229-18.075,5.229-18.075-10.995-7.164-15.068-5.211S648.735,216.39,648.735,216.39Z" transform="translate(-349.521 -118.577)" fill="#f2f2f2"/>
    <path id="Tracé_248" data-name="Tracé 248" d="M587.706,315.878s0-12.985,27.824-12.985h12.057L622.023,333.5l-18.549,5.565Z" transform="translate(-336.079 -140.184)" fill="#8985a8"/>
    <path id="Tracé_249" data-name="Tracé 249" d="M651.464,179.937a72.049,72.049,0,0,1-8.159-.5c-2.126-5.139-4.835-9.451-7.765-11.059-2.08-1.861-5.287-3.213-7.8-4.282-6.18-2.625-16.467-.988-17.069,2-12.16,5.811-9.088,16.015-9.088,16.015,1.89,3.994,6.128,2.224,9.724.415.918,2.9,3.087,5.352,6.193,5.469,5.938.224,8.818,2.711,7.386,5.987s-3.152,11.061,3.315,9.878,8.511,1.391,7.366,3.37,2.884-3.935,2.884-3.935,3.6,5.369,8.027,1.611a3.356,3.356,0,0,0,.921-1.579c2.057.885,3.686,1.221,4.612.807,5.3-2.371,2.008-7.937,2.008-7.937s7.073-1.085,4.794-.905-3.721-2.774.135-8.1S655.038,180.058,651.464,179.937Z" transform="translate(-339.059 -109.322)" fill="#2f2e41"/>
    <rect id="Rectangle_1142" data-name="Rectangle 1142" width="2.782" height="8.347" transform="translate(273.885 65.562) rotate(18.407)" fill="#00b36d"/>
    <path id="Tracé_250" data-name="Tracé 250" d="M390.566,360.441c-36.084.166-65.455.7-65.455.7s34.911-46.244,65.324-29.111,65.348,28.509,65.348,28.509S426.649,360.275,390.566,360.441Z" transform="translate(-278.24 -145.762)" fill="#f2f2f2"/>
    <path id="Tracé_251" data-name="Tracé 251" d="M723.566,126.441c-36.084.166-65.455.7-65.455.7S693.022,80.9,723.435,98.029s65.347,28.509,65.347,28.509S759.649,126.275,723.566,126.441Z" transform="translate(-351.586 -94.222)" fill="#f2f2f2"/>
    <path id="Tracé_252" data-name="Tracé 252" d="M800.523,377.441c36.083.166,65.455.7,65.455.7S831.066,331.9,800.654,349.03s-65.348,28.509-65.348,28.509S764.44,377.275,800.523,377.441Z" transform="translate(-368.589 -149.507)" fill="#f2f2f2"/>
    <path id="Tracé_84" data-name="Tracé 84" d="M965.464,413.655c0-6.314-18.891-1.777-26.99,7.038-5.608,6.1-14.126,15.289-6.989,21.762s-12.235,14.96-17.431,17.533-15.454,10.441-6.191,15.72,9.114,10.607,5.628,11.869,7.686-1.876,7.686-1.876-1.128,10.425,8.284,10.375,36.415-51.776,29.964-66.154C953.426,416.555,965.464,413.655,965.464,413.655Z" transform="translate(-750.043 -248.999)" fill="#2f2e41"/>
    <circle id="Ellipse_2826" data-name="Ellipse 2826" cx="8.223" cy="8.223" r="8.223" transform="translate(196.232 157.414)" fill="#00b36d"/>
  </g>
</svg>
