<svg xmlns="http://www.w3.org/2000/svg" width="348.765" height="163.98" viewBox="0 0 348.765 163.98">
  <g id="undraw_web_developer_p3e5" transform="translate(0 -119.147)">
    <path id="Tracé_113" data-name="Tracé 113" d="M899.863,739.671c-2.363,9-10.641,14.619-10.641,14.619s-4.448-8.964-2.086-17.961,10.641-14.619,10.641-14.619S902.225,730.674,899.863,739.671Z" transform="translate(-607.56 -474.405)" fill="#3f3d56"/>
    <path id="Tracé_114" data-name="Tracé 114" d="M901.126,755.181c-6.617,6.538-7.358,16.518-7.358,16.518s9.988-.62,16.605-7.157,7.358-16.518,7.358-16.518S907.743,748.644,901.126,755.181Z" transform="translate(-612.407 -491.819)" fill="#00b36d"/>
    <path id="Tracé_115" data-name="Tracé 115" d="M184.934,646.106H197.4l30.71-12.017s21.808-8.9,20.028,8.011-4.9,39.611-4.9,39.611-9.791-4.451-15.132-3.115-1.78-27.149-1.78-27.149-43.617,20.918-47.622,18.248-4.9-21.363-4.9-21.363Z" transform="translate(-135.977 -414.874)" fill="#2f2e41"/>
    <path id="Tracé_116" data-name="Tracé 116" d="M184.934,646.106H197.4l30.71-12.017s21.808-8.9,20.028,8.011-4.9,39.611-4.9,39.611-9.791-4.451-15.132-3.115-1.78-27.149-1.78-27.149-43.617,20.918-47.622,18.248-4.9-21.363-4.9-21.363Z" transform="translate(-135.977 -414.874)" opacity="0.1"/>
    <path id="Tracé_117" data-name="Tracé 117" d="M242.879,558.82l15.081,21.668,35.16,29.375s32.49,7.566,28.039,12.907-31.6-5.341-31.6-5.341-40.5-29.374-41.836-31.6S231.7,562.686,231.7,562.686Z" transform="translate(-174.288 -366.614)" fill="#a0616a"/>
    <path id="Tracé_118" data-name="Tracé 118" d="M242.879,558.82l15.081,21.668,35.16,29.375s32.49,7.566,28.039,12.907-31.6-5.341-31.6-5.341-40.5-29.374-41.836-31.6S231.7,562.686,231.7,562.686Z" transform="translate(-174.288 -366.614)" opacity="0.1"/>
    <path id="Tracé_119" data-name="Tracé 119" d="M209.548,507.092l9.791,19.138s-2.225,9.346-5.786,10.237-18.693-11.572-18.693-11.572Z" transform="translate(-149.909 -332.384)" fill="#d0cde1"/>
    <path id="Tracé_120" data-name="Tracé 120" d="M209.548,507.092l9.791,19.138s-2.225,9.346-5.786,10.237-18.693-11.572-18.693-11.572Z" transform="translate(-149.909 -332.384)" opacity="0.1"/>
    <path id="Tracé_121" data-name="Tracé 121" d="M564.985,643.786l2.892,11.931a.744.744,0,0,1-.014.4l-13.12,41a.745.745,0,0,1-1.45-.143l-1.815-15.972a.744.744,0,0,1,.032-.315l12.043-36.959a.745.745,0,0,1,1.432.055Z" transform="translate(-385.895 -422.464)" fill="#2f2e41"/>
    <path id="Tracé_122" data-name="Tracé 122" d="M503.668,575.493l2.67,10.237-11.572,37.385-2.67-11.572Z" transform="translate(-325.641 -353.163)" fill="#f2f2f2"/>
    <path id="Tracé_123" data-name="Tracé 123" d="M415.77,772.3c.445,1.335,46.287-.445,46.732-.89a9.665,9.665,0,0,0,.979-1.78c.418-.89.8-1.78.8-1.78l-1.78-14.411-45.4-1.611s-1.135,12.213-1.366,17.8A13.366,13.366,0,0,0,415.77,772.3Z" transform="translate(-296.047 -494.334)" fill="#2f2e41"/>
    <path id="Tracé_124" data-name="Tracé 124" d="M437.551,689.965l.89,12.462H418.413V689.965Z" transform="translate(-276.882 -428.914)" opacity="0.1"/>
    <path id="Tracé_125" data-name="Tracé 125" d="M376.039,701.76l.119-.024-.565,5.365H364.467V701.76Z" transform="translate(-241.184 -436.703)" opacity="0.1"/>
    <path id="Tracé_126" data-name="Tracé 126" d="M415.77,807.126c.445,1.335,46.287-.445,46.732-.89a9.66,9.66,0,0,0,.979-1.78H415.739A13.364,13.364,0,0,0,415.77,807.126Z" transform="translate(-296.047 -529.162)" opacity="0.1"/>
    <circle id="Ellipse_2813" data-name="Ellipse 2813" cx="20.028" cy="20.028" r="20.028" transform="translate(46.287 128.421)" fill="#a0616a"/>
    <path id="Tracé_127" data-name="Tracé 127" d="M194.427,448.344s-6.676,11.572-8.011,17.8-20.028-12.462-20.028-12.462l-2.448-6.453s17.58-8.234,16.245-14.91S194.427,448.344,194.427,448.344Z" transform="translate(-129.447 -282.092)" fill="#a0616a"/>
    <path id="Tracé_128" data-name="Tracé 128" d="M222.8,584.722l18.248,24.034,43.617,32.49s31.6,6.676,24.479,11.572-27.594-4.451-27.594-4.451-44.062-23.589-53.408-33.38-26.7-26.259-26.7-26.259Z" transform="translate(-154.262 -383.755)" fill="#a0616a"/>
    <path id="Tracé_129" data-name="Tracé 129" d="M114.737,689.82l5.341,8.456,31.874-10.028a25.061,25.061,0,0,1,20.866,2.518c5.563,3.5,9.124,9.068,1.113,17.3-16.022,16.467-26.7,7.566-26.7,7.566S93.374,741,84.472,728.541s-9.346-18.693-9.346-18.693S109.4,688.485,114.737,689.82Z" transform="translate(-70.675 -451.468)" fill="#2f2e41"/>
    <path id="Tracé_130" data-name="Tracé 130" d="M298.17,774.251s14.242,9.346-2.67,13.8-29.374-1.78-29.374-1.78-14.687,0-14.687-7.566,4.9-8.456,4.9-8.456l15.132,2.225S289.714,767.575,298.17,774.251Z" transform="translate(-187.348 -506.524)" fill="#d0cde1"/>
    <path id="Tracé_131" data-name="Tracé 131" d="M222.614,367.1a14.934,14.934,0,0,0,4.2,1.5,3.831,3.831,0,0,0,3.871-1.658,5.206,5.206,0,0,0,.44-2.355c.054-2.444-.123-5.086-1.672-6.977-.986-1.2-2.424-1.963-3.445-3.137a14.823,14.823,0,0,1-1.741-2.845c-1.984-3.727-4.922-7.308-9.005-8.383a19.532,19.532,0,0,0-5.256-.4l-10.282.145a17.9,17.9,0,0,0-4.946.532c-3.309,1-5.719,3.784-7.926,6.445a40.307,40.307,0,0,0-4.546,6.274,22.013,22.013,0,0,0-2.609,10.786,10.092,10.092,0,0,0,.37,2.854,15.84,15.84,0,0,0,1.122,2.464c1.928,3.787,3.073,8.518.9,12.171,3.772-1.541,7.5-3.561,9.993-6.788,1.113-1.443,1.986-3.133,3.47-4.193s3.9-1.151,4.853.4a4.349,4.349,0,0,1,.491,2.037,9.337,9.337,0,0,0,.562,3.438,2.576,2.576,0,0,0,2.8,1.6c1.938-.546,1.752-3.52,3.245-4.871,1.133-1.026,2.882-.83,4.338-1.3a6.438,6.438,0,0,0,3.7-3.639c.551-1.237.543-4.473,1.587-5.142C218.426,365.222,221.4,366.557,222.614,367.1Z" transform="translate(-139.87 -223.687)" fill="#2f2e41"/>
    <path id="Tracé_132" data-name="Tracé 132" d="M94.871,472.213a5.282,5.282,0,0,1,2.749.007c2.857.767,9.262,2.8,10.635,5.887,1.78,4.006,8.011,10.237,8.011,10.237s8.456,8.456,6.676,14.242-8.456,12.462-8.456,12.462,1.78,27.594-7.121,34.715-12.462,2.225-12.462,8.9-27.594,27.594-32.935,14.687c0,0,2.67-24.034,1.78-32.49C62.871,532.527,64.155,480.528,94.871,472.213Z" transform="translate(-61.968 -309.185)" fill="#d0cde1"/>
    <path id="Tracé_133" data-name="Tracé 133" d="M160.793,503.49s27.149,20.028,22.253,28.484c0,0-16.467,8.011-20.028,7.566s-17.358-16.022-20.918-17.358S136.76,496.814,160.793,503.49Z" transform="translate(-113.616 -329.226)" fill="#d0cde1"/>
    <rect id="Rectangle_1113" data-name="Rectangle 1113" width="95.727" height="0.677" transform="translate(253.038 279.484)" fill="#3f3d56"/>
  </g>
</svg>
